<mxfile host="app.diagrams.net" modified="2023-11-10T11:55:15.135Z" agent="Mozilla/5.0 (X11; Linux x86_64) AppleWebKit/537.36 (KHTML, like Gecko) Chrome/118.0.0.0 Safari/537.36" etag="UNBjW44PuOI0oGFdoGaZ" version="22.1.0" type="device">
  <diagram name="Page-1" id="O78GFGjkQ9ekmYcBmggU">
    <mxGraphModel dx="795" dy="476" grid="1" gridSize="10" guides="1" tooltips="1" connect="1" arrows="1" fold="1" page="1" pageScale="1" pageWidth="1169" pageHeight="827" math="0" shadow="0">
      <root>
        <mxCell id="0" />
        <mxCell id="1" parent="0" />
        <mxCell id="gRYUmpcs6kCKH6bsqaYQ-53" value="" style="rounded=0;whiteSpace=wrap;html=1;" vertex="1" parent="1">
          <mxGeometry x="320" y="120" width="400" height="360" as="geometry" />
        </mxCell>
        <mxCell id="gRYUmpcs6kCKH6bsqaYQ-2" value="" style="ellipse;whiteSpace=wrap;html=1;aspect=fixed;" vertex="1" parent="1">
          <mxGeometry x="340" y="166.3" width="209.5" height="209.5" as="geometry" />
        </mxCell>
        <mxCell id="gRYUmpcs6kCKH6bsqaYQ-3" value="main 1" style="rounded=0;whiteSpace=wrap;html=1;" vertex="1" parent="1">
          <mxGeometry x="410" y="170" width="80" height="40" as="geometry" />
        </mxCell>
        <mxCell id="gRYUmpcs6kCKH6bsqaYQ-4" value="game" style="rounded=0;whiteSpace=wrap;html=1;" vertex="1" parent="1">
          <mxGeometry x="610" y="230" width="80" height="80" as="geometry" />
        </mxCell>
        <mxCell id="gRYUmpcs6kCKH6bsqaYQ-5" value="main 2" style="rounded=0;whiteSpace=wrap;html=1;" vertex="1" parent="1">
          <mxGeometry x="410" y="250" width="80" height="40" as="geometry" />
        </mxCell>
        <mxCell id="gRYUmpcs6kCKH6bsqaYQ-6" value="main 4" style="rounded=0;whiteSpace=wrap;html=1;" vertex="1" parent="1">
          <mxGeometry x="410" y="410" width="80" height="40" as="geometry" />
        </mxCell>
        <mxCell id="gRYUmpcs6kCKH6bsqaYQ-7" value="" style="endArrow=classic;html=1;rounded=0;entryX=0;entryY=0.25;entryDx=0;entryDy=0;exitX=1;exitY=0.25;exitDx=0;exitDy=0;" edge="1" parent="1" source="gRYUmpcs6kCKH6bsqaYQ-5" target="gRYUmpcs6kCKH6bsqaYQ-4">
          <mxGeometry width="50" height="50" relative="1" as="geometry">
            <mxPoint x="470" y="330" as="sourcePoint" />
            <mxPoint x="520" y="280" as="targetPoint" />
          </mxGeometry>
        </mxCell>
        <mxCell id="gRYUmpcs6kCKH6bsqaYQ-8" value="action" style="edgeLabel;html=1;align=center;verticalAlign=middle;resizable=0;points=[];" vertex="1" connectable="0" parent="gRYUmpcs6kCKH6bsqaYQ-7">
          <mxGeometry x="-0.0861" y="3" relative="1" as="geometry">
            <mxPoint as="offset" />
          </mxGeometry>
        </mxCell>
        <mxCell id="gRYUmpcs6kCKH6bsqaYQ-9" value="" style="endArrow=classic;html=1;rounded=0;exitX=0;exitY=0.5;exitDx=0;exitDy=0;entryX=1;entryY=0.75;entryDx=0;entryDy=0;" edge="1" parent="1" source="gRYUmpcs6kCKH6bsqaYQ-4" target="gRYUmpcs6kCKH6bsqaYQ-3">
          <mxGeometry width="50" height="50" relative="1" as="geometry">
            <mxPoint x="470" y="330" as="sourcePoint" />
            <mxPoint x="520" y="280" as="targetPoint" />
          </mxGeometry>
        </mxCell>
        <mxCell id="gRYUmpcs6kCKH6bsqaYQ-10" value="action reply" style="edgeLabel;html=1;align=center;verticalAlign=middle;resizable=0;points=[];" vertex="1" connectable="0" parent="gRYUmpcs6kCKH6bsqaYQ-9">
          <mxGeometry x="0.1036" y="2" relative="1" as="geometry">
            <mxPoint as="offset" />
          </mxGeometry>
        </mxCell>
        <mxCell id="gRYUmpcs6kCKH6bsqaYQ-11" value="" style="endArrow=classic;html=1;rounded=0;exitX=0;exitY=0.5;exitDx=0;exitDy=0;entryX=1;entryY=0.5;entryDx=0;entryDy=0;" edge="1" parent="1" source="gRYUmpcs6kCKH6bsqaYQ-4" target="gRYUmpcs6kCKH6bsqaYQ-5">
          <mxGeometry width="50" height="50" relative="1" as="geometry">
            <mxPoint x="660" y="280" as="sourcePoint" />
            <mxPoint x="500" y="210" as="targetPoint" />
          </mxGeometry>
        </mxCell>
        <mxCell id="gRYUmpcs6kCKH6bsqaYQ-12" value="action reply" style="edgeLabel;html=1;align=center;verticalAlign=middle;resizable=0;points=[];" vertex="1" connectable="0" parent="gRYUmpcs6kCKH6bsqaYQ-11">
          <mxGeometry x="0.1846" y="2" relative="1" as="geometry">
            <mxPoint x="1" as="offset" />
          </mxGeometry>
        </mxCell>
        <mxCell id="gRYUmpcs6kCKH6bsqaYQ-13" value="" style="endArrow=classic;html=1;rounded=0;exitX=0;exitY=0.5;exitDx=0;exitDy=0;entryX=1;entryY=0.5;entryDx=0;entryDy=0;dashed=1;" edge="1" parent="1" source="gRYUmpcs6kCKH6bsqaYQ-4" target="gRYUmpcs6kCKH6bsqaYQ-6">
          <mxGeometry width="50" height="50" relative="1" as="geometry">
            <mxPoint x="660" y="280" as="sourcePoint" />
            <mxPoint x="500" y="260" as="targetPoint" />
          </mxGeometry>
        </mxCell>
        <mxCell id="gRYUmpcs6kCKH6bsqaYQ-14" value="no action reply&amp;nbsp;!" style="edgeLabel;html=1;align=center;verticalAlign=middle;resizable=0;points=[];" vertex="1" connectable="0" parent="gRYUmpcs6kCKH6bsqaYQ-13">
          <mxGeometry x="0.1882" y="4" relative="1" as="geometry">
            <mxPoint as="offset" />
          </mxGeometry>
        </mxCell>
        <mxCell id="gRYUmpcs6kCKH6bsqaYQ-50" value="main 3" style="rounded=0;whiteSpace=wrap;html=1;" vertex="1" parent="1">
          <mxGeometry x="410" y="330" width="80" height="40" as="geometry" />
        </mxCell>
        <mxCell id="gRYUmpcs6kCKH6bsqaYQ-51" value="" style="endArrow=classic;html=1;rounded=0;exitX=0;exitY=0.5;exitDx=0;exitDy=0;entryX=1;entryY=0.5;entryDx=0;entryDy=0;" edge="1" parent="1" source="gRYUmpcs6kCKH6bsqaYQ-4" target="gRYUmpcs6kCKH6bsqaYQ-50">
          <mxGeometry width="50" height="50" relative="1" as="geometry">
            <mxPoint x="620" y="280" as="sourcePoint" />
            <mxPoint x="500" y="280" as="targetPoint" />
          </mxGeometry>
        </mxCell>
        <mxCell id="gRYUmpcs6kCKH6bsqaYQ-52" value="action reply" style="edgeLabel;html=1;align=center;verticalAlign=middle;resizable=0;points=[];" vertex="1" connectable="0" parent="gRYUmpcs6kCKH6bsqaYQ-51">
          <mxGeometry x="0.1846" y="2" relative="1" as="geometry">
            <mxPoint x="1" as="offset" />
          </mxGeometry>
        </mxCell>
      </root>
    </mxGraphModel>
  </diagram>
</mxfile>
